<svg width="16" height="16" viewBox="0 0 16 16" fill="none"
  xmlns="http://www.w3.org/2000/svg">
  <path d="M1 14.25C1 14.4489 1.07902 14.6397 1.21967 14.7803C1.36032 14.921 1.55109 15 1.75 15H14.25C14.4489 15 14.6397 14.921 14.7803 14.7803C14.921 14.6397 15 14.4489 15 14.25V5.5H1V14.25ZM11 6.625C11 6.59185 11.0132 6.56005 11.0366 6.53661C11.0601 6.51317 11.0918 6.5 11.125 6.5H12.375C12.4082 6.5 12.4399 6.51317 12.4634 6.53661C12.4868 6.56005 12.5 6.59185 12.5 6.625V7.875C12.5 7.90815 12.4868 7.93995 12.4634 7.96339C12.4399 7.98683 12.4082 8 12.375 8H11.125C11.0918 8 11.0601 7.98683 11.0366 7.96339C11.0132 7.93995 11 7.90815 11 7.875V6.625ZM11 9.125C11 9.09185 11.0132 9.06005 11.0366 9.03661C11.0601 9.01317 11.0918 9 11.125 9H12.375C12.4082 9 12.4399 9.01317 12.4634 9.03661C12.4868 9.06005 12.5 9.09185 12.5 9.125V10.375C12.5 10.4082 12.4868 10.4399 12.4634 10.4634C12.4399 10.4868 12.4082 10.5 12.375 10.5H11.125C11.0918 10.5 11.0601 10.4868 11.0366 10.4634C11.0132 10.4399 11 10.4082 11 10.375V9.125ZM8.5 6.625C8.5 6.59185 8.51317 6.56005 8.53661 6.53661C8.56005 6.51317 8.59185 6.5 8.625 6.5H9.875C9.90815 6.5 9.93995 6.51317 9.96339 6.53661C9.98683 6.56005 10 6.59185 10 6.625V7.875C10 7.90815 9.98683 7.93995 9.96339 7.96339C9.93995 7.98683 9.90815 8 9.875 8H8.625C8.59185 8 8.56005 7.98683 8.53661 7.96339C8.51317 7.93995 8.5 7.90815 8.5 7.875V6.625ZM8.5 9.125C8.5 9.09185 8.51317 9.06005 8.53661 9.03661C8.56005 9.01317 8.59185 9 8.625 9H9.875C9.90815 9 9.93995 9.01317 9.96339 9.03661C9.98683 9.06005 10 9.09185 10 9.125V10.375C10 10.4082 9.98683 10.4399 9.96339 10.4634C9.93995 10.4868 9.90815 10.5 9.875 10.5H8.625C8.59185 10.5 8.56005 10.4868 8.53661 10.4634C8.51317 10.4399 8.5 10.4082 8.5 10.375V9.125ZM8.5 11.625C8.5 11.5918 8.51317 11.5601 8.53661 11.5366C8.56005 11.5132 8.59185 11.5 8.625 11.5H9.875C9.90815 11.5 9.93995 11.5132 9.96339 11.5366C9.98683 11.5601 10 11.5918 10 11.625V12.875C10 12.9082 9.98683 12.9399 9.96339 12.9634C9.93995 12.9868 9.90815 13 9.875 13H8.625C8.59185 13 8.56005 12.9868 8.53661 12.9634C8.51317 12.9399 8.5 12.9082 8.5 12.875V11.625ZM6 9.125C6 9.09185 6.01317 9.06005 6.03661 9.03661C6.06005 9.01317 6.09185 9 6.125 9H7.375C7.40815 9 7.43995 9.01317 7.46339 9.03661C7.48683 9.06005 7.5 9.09185 7.5 9.125V10.375C7.5 10.4082 7.48683 10.4399 7.46339 10.4634C7.43995 10.4868 7.40815 10.5 7.375 10.5H6.125C6.09185 10.5 6.06005 10.4868 6.03661 10.4634C6.01317 10.4399 6 10.4082 6 10.375V9.125ZM6 11.625C6 11.5918 6.01317 11.5601 6.03661 11.5366C6.06005 11.5132 6.09185 11.5 6.125 11.5H7.375C7.40815 11.5 7.43995 11.5132 7.46339 11.5366C7.48683 11.5601 7.5 11.5918 7.5 11.625V12.875C7.5 12.9082 7.48683 12.9399 7.46339 12.9634C7.43995 12.9868 7.40815 13 7.375 13H6.125C6.09185 13 6.06005 12.9868 6.03661 12.9634C6.01317 12.9399 6 12.9082 6 12.875V11.625ZM3.5 9.125C3.5 9.09185 3.51317 9.06005 3.53661 9.03661C3.56005 9.01317 3.59185 9 3.625 9H4.875C4.90815 9 4.93995 9.01317 4.96339 9.03661C4.98683 9.06005 5 9.09185 5 9.125V10.375C5 10.4082 4.98683 10.4399 4.96339 10.4634C4.93995 10.4868 4.90815 10.5 4.875 10.5H3.625C3.59185 10.5 3.56005 10.4868 3.53661 10.4634C3.51317 10.4399 3.5 10.4082 3.5 10.375V9.125ZM3.5 11.625C3.5 11.5918 3.51317 11.5601 3.53661 11.5366C3.56005 11.5132 3.59185 11.5 3.625 11.5H4.875C4.90815 11.5 4.93995 11.5132 4.96339 11.5366C4.98683 11.5601 5 11.5918 5 11.625V12.875C5 12.9082 4.98683 12.9399 4.96339 12.9634C4.93995 12.9868 4.90815 13 4.875 13H3.625C3.59185 13 3.56005 12.9868 3.53661 12.9634C3.51317 12.9399 3.5 12.9082 3.5 12.875V11.625Z" />
  <path d="M14.25 2H12.5025V1H11.0025V2H4.9975V1H3.4975V2H1.75C1.65188 1.99918 1.55457 2.01777 1.46368 2.05472C1.37278 2.09167 1.29009 2.14624 1.22038 2.21529C1.15066 2.28433 1.0953 2.36649 1.05748 2.45703C1.01965 2.54757 1.00012 2.64469 1 2.74281V4.5H15V2.74281C14.9999 2.64469 14.9803 2.54757 14.9425 2.45703C14.9047 2.36649 14.8493 2.28433 14.7796 2.21529C14.7099 2.14624 14.6272 2.09167 14.5363 2.05472C14.4454 2.01777 14.3481 1.99918 14.25 2V2Z" />
</svg>