<svg width="16" height="16" viewBox="0 0 16 16" fill="none"
  xmlns="http://www.w3.org/2000/svg">
  <path d="M8.1737 3.16499C8.12718 3.12048 8.06527 3.09564 8.00089 3.09564C7.9365 3.09564 7.8746 3.12048 7.82808 3.16499L2.07495 8.66093C2.05052 8.6843 2.03108 8.71238 2.01781 8.74348C2.00455 8.77458 1.99773 8.80805 1.99776 8.84186L1.99683 14C1.99683 14.2652 2.10218 14.5196 2.28972 14.7071C2.47726 14.8946 2.73161 15 2.99683 15H5.99995C6.13256 15 6.25974 14.9473 6.3535 14.8535C6.44727 14.7598 6.49995 14.6326 6.49995 14.5V10.25C6.49995 10.1837 6.52629 10.1201 6.57317 10.0732C6.62006 10.0263 6.68365 9.99999 6.74995 9.99999H9.24995C9.31626 9.99999 9.37984 10.0263 9.42673 10.0732C9.47361 10.1201 9.49995 10.1837 9.49995 10.25V14.5C9.49995 14.6326 9.55263 14.7598 9.6464 14.8535C9.74017 14.9473 9.86734 15 9.99995 15H13.0018C13.267 15 13.5214 14.8946 13.7089 14.7071C13.8965 14.5196 14.0018 14.2652 14.0018 14V8.84186C14.0019 8.80805 13.995 8.77458 13.9818 8.74348C13.9685 8.71238 13.9491 8.6843 13.9246 8.66093L8.1737 3.16499Z" />
  <path d="M15.3409 7.62969L13.0034 5.39344V2C13.0034 1.86739 12.9508 1.74021 12.857 1.64645C12.7632 1.55268 12.6361 1.5 12.5034 1.5H11.0034C10.8708 1.5 10.7437 1.55268 10.6499 1.64645C10.5561 1.74021 10.5034 1.86739 10.5034 2V3L8.69345 1.26937C8.52407 1.09812 8.2722 1 8.00001 1C7.72876 1 7.47751 1.09813 7.30814 1.26969L0.661262 7.62906C0.466887 7.81656 0.442512 8.125 0.619387 8.32812C0.663803 8.3794 0.718187 8.42109 0.77923 8.45068C0.840273 8.48027 0.906698 8.49712 0.974462 8.50022C1.04223 8.50332 1.10991 8.4926 1.1734 8.46871C1.23689 8.44481 1.29485 8.40825 1.34376 8.36125L7.82814 2.165C7.87466 2.12049 7.93656 2.09565 8.00095 2.09565C8.06533 2.09565 8.12724 2.12049 8.17376 2.165L14.6588 8.36125C14.7543 8.45286 14.8822 8.50285 15.0146 8.50028C15.1469 8.4977 15.2728 8.44276 15.3647 8.3475C15.5566 8.14875 15.5406 7.82062 15.3409 7.62969Z" />
</svg>