<svg width="16" height="14" viewBox="0 0 16 14" fill="none"
  xmlns="http://www.w3.org/2000/svg">
  <path d="M12.7412 5.5C12.6562 5.5 12.29 5.5025 12.1578 5.50969L10.3525 5.55719L6.18936 0.5H4.22654L6.55748 5.64406L3.51654 5.68906L2.13279 4H0.504355L1.14842 6.94312C1.15311 6.96 1.15873 6.97656 1.16498 6.99281C1.16544 6.99434 1.16544 6.99597 1.16498 6.9975C1.15857 7.01365 1.15304 7.03013 1.14842 7.04688L0.495605 10H2.11373L3.53404 8.28125L6.55811 8.34906L4.22623 13.5H6.19498L10.3512 8.44531L12.1565 8.49344C12.2906 8.50063 12.6565 8.50313 12.7397 8.50313C13.5006 8.50313 14.1231 8.39875 14.59 8.1925C15.3819 7.84375 15.5 7.29563 15.5 7C15.5 6.06063 14.4687 5.5 12.7412 5.5Z" />
</svg>
